<svg width="104" height="38" viewBox="0 0 104 38" fill="none" xmlns="http://www.w3.org/2000/svg" cursor="pointer">
<g filter="url(#filter0_i_205_227)">
<rect width="104" height="38" rx="19" fill="#3053F9"/>
</g>
<path d="M18.0176 14.6211C18.0176 15.1725 18.1292 15.6989 18.3525 16.2002C18.5804 16.6969 18.9176 17.1367 19.3643 17.5195C19.8154 17.9023 20.36 18.194 20.998 18.3945L20.2461 19.5977C19.5443 19.3607 18.9382 19.0189 18.4277 18.5723C17.9219 18.1211 17.5277 17.5879 17.2451 16.9727C16.958 17.638 16.5547 18.2145 16.0352 18.7021C15.5202 19.1898 14.9049 19.5566 14.1895 19.8027L13.4238 18.6133C14.071 18.39 14.6201 18.0732 15.0713 17.6631C15.527 17.2529 15.8688 16.7858 16.0967 16.2617C16.3291 15.7376 16.4453 15.1908 16.4453 14.6211V13.4453H18.0176V14.6211ZM23.7051 25.2168H22.1738V22.0312H15.2695V20.8145H23.7051V25.2168ZM23.7051 20.2539H22.1738V12.8574H23.7051V20.2539ZM35.2578 16.3301H36.9941V17.5879H35.2578V21.7988H33.7402V12.8574H35.2578V16.3301ZM31.5664 15.0996H27.5332V18.4629H27.793C28.9049 18.4629 29.8141 18.4355 30.5205 18.3809C31.2314 18.3262 31.931 18.2259 32.6191 18.0801L32.7832 19.3105C31.9948 19.4655 31.1836 19.5703 30.3496 19.625C29.5156 19.6797 28.4082 19.707 27.0273 19.707H26.0293V13.8828H31.5664V15.0996ZM35.75 24.9707H27.3418V20.8555H28.8594V23.7402H35.75V24.9707ZM52.1973 21.5254H47.3027V25.2305H45.7988V21.5254H40.9316V20.2812H52.1973V21.5254ZM51.1445 15.5234H47.3301C47.3802 15.9382 47.5853 16.3415 47.9453 16.7334C48.3053 17.1253 48.7975 17.4648 49.4219 17.752C50.0462 18.0391 50.7572 18.2305 51.5547 18.3262L50.9941 19.5293C49.9915 19.4017 49.1029 19.1305 48.3281 18.7158C47.5579 18.2965 46.9678 17.7839 46.5576 17.1777C46.1475 17.7884 45.555 18.3011 44.7803 18.7158C44.0055 19.1305 43.11 19.4017 42.0938 19.5293L41.5469 18.3262C42.3444 18.2305 43.0553 18.0413 43.6797 17.7588C44.304 17.4717 44.7985 17.1322 45.1631 16.7402C45.5277 16.3483 45.735 15.9427 45.7852 15.5234H41.9707V14.3203H45.7988V12.8711H47.3027V14.3203H51.1445V15.5234ZM62.7109 17.6836H64.543V18.9551H62.7109V25.1895H61.1934V12.8574H62.7109V17.6836ZM59.4434 14.1426C59.4434 18.1986 57.5703 21.1471 53.8242 22.9883L52.9629 21.8125C54.4668 21.0651 55.6266 20.1605 56.4424 19.0986C57.2627 18.0368 57.7503 16.804 57.9053 15.4004H53.6328V14.1426H59.4434ZM74.8105 17.7793H76.7109V19.0371H74.8105V25.2168H73.3066V12.8574H74.8105V17.7793ZM72.3496 15.9746H65.0625V14.7578H67.9883V13.0352H69.5059V14.7578H72.3496V15.9746ZM68.7539 16.7812C69.3418 16.7812 69.8704 16.9066 70.3398 17.1572C70.8138 17.4033 71.1852 17.7474 71.4541 18.1895C71.723 18.6315 71.8574 19.1328 71.8574 19.6934C71.8574 20.2539 71.723 20.7552 71.4541 21.1973C71.1852 21.6348 70.8138 21.9766 70.3398 22.2227C69.8704 22.4688 69.3418 22.5918 68.7539 22.5918C68.1569 22.5918 67.6214 22.4688 67.1475 22.2227C66.6735 21.9766 66.3021 21.6348 66.0332 21.1973C65.7643 20.7552 65.6322 20.2539 65.6367 19.6934C65.6322 19.1328 65.7643 18.6315 66.0332 18.1895C66.3021 17.7474 66.6735 17.4033 67.1475 17.1572C67.6214 16.9066 68.1569 16.7812 68.7539 16.7812ZM68.7539 18.0254C68.4303 18.0254 68.141 18.0938 67.8857 18.2305C67.6351 18.3672 67.4391 18.5632 67.2979 18.8184C67.1566 19.069 67.0859 19.3607 67.0859 19.6934C67.0859 20.026 67.1566 20.3177 67.2979 20.5684C67.4391 20.8145 67.6351 21.0059 67.8857 21.1426C68.141 21.2747 68.4303 21.3385 68.7539 21.334C69.0684 21.3385 69.3486 21.2747 69.5947 21.1426C69.8454 21.0059 70.0413 20.8145 70.1826 20.5684C70.3285 20.3177 70.4036 20.026 70.4082 19.6934C70.4036 19.3607 70.3285 19.069 70.1826 18.8184C70.0413 18.5677 69.8454 18.374 69.5947 18.2373C69.3486 18.096 69.0684 18.0254 68.7539 18.0254ZM87.5527 25.2168H86.0215V12.8574H87.5527V25.2168ZM83.8613 14.1699C83.8613 16.1341 83.417 17.859 82.5283 19.3447C81.6396 20.8258 80.1654 22.054 78.1055 23.0293L77.3125 21.8125C78.903 21.056 80.0993 20.1514 80.9014 19.0986C81.708 18.0413 82.1797 16.7995 82.3164 15.373H77.9414V14.1699H83.8613Z" fill="white"/>
<defs>
<filter id="filter0_i_205_227" x="-4" y="0" width="108" height="42" filterUnits="userSpaceOnUse" color-interpolation-filters="sRGB">
<feFlood flood-opacity="0" result="BackgroundImageFix"/>
<feBlend mode="normal" in="SourceGraphic" in2="BackgroundImageFix" result="shape"/>
<feColorMatrix in="SourceAlpha" type="matrix" values="0 0 0 0 0 0 0 0 0 0 0 0 0 0 0 0 0 0 127 0" result="hardAlpha"/>
<feOffset dx="-4" dy="4"/>
<feGaussianBlur stdDeviation="2"/>
<feComposite in2="hardAlpha" operator="arithmetic" k2="-1" k3="1"/>
<feColorMatrix type="matrix" values="0 0 0 0 1 0 0 0 0 1 0 0 0 0 1 0 0 0 0.2 0"/>
<feBlend mode="normal" in2="shape" result="effect1_innerShadow_205_227"/>
</filter>
</defs>
</svg>
