<svg width="97" height="30" viewBox="0 0 97 30" fill="none" xmlns="http://www.w3.org/2000/svg">
<rect x="0.571289" width="96.4286" height="30" rx="15" fill="#3053F9"/>
<path d="M27.7217 16.8789H23.5264V20.0547H22.2373V16.8789H18.0654V15.8125H27.7217V16.8789ZM26.8193 11.7344H23.5498C23.5928 12.0898 23.7686 12.4355 24.0771 12.7715C24.3857 13.1074 24.8076 13.3984 25.3428 13.6445C25.8779 13.8906 26.4873 14.0547 27.1709 14.1367L26.6904 15.168C25.8311 15.0586 25.0693 14.8262 24.4053 14.4707C23.7451 14.1113 23.2393 13.6719 22.8877 13.1523C22.5361 13.6758 22.0283 14.1152 21.3643 14.4707C20.7002 14.8262 19.9326 15.0586 19.0615 15.168L18.5928 14.1367C19.2764 14.0547 19.8857 13.8926 20.4209 13.6504C20.9561 13.4043 21.3799 13.1133 21.6924 12.7773C22.0049 12.4414 22.1826 12.0938 22.2256 11.7344H18.9561V10.7031H22.2373V9.46094H23.5264V10.7031H26.8193V11.7344ZM36.7334 13.5859H38.3037V14.6758H36.7334V20.0195H35.4326V9.44922H36.7334V13.5859ZM33.9326 10.5508C33.9326 14.0273 32.3271 16.5547 29.1162 18.1328L28.3779 17.125C29.667 16.4844 30.6611 15.709 31.3604 14.7988C32.0635 13.8887 32.4814 12.832 32.6143 11.6289H28.9521V10.5508H33.9326ZM47.1045 13.668H48.7334V14.7461H47.1045V20.043H45.8154V9.44922H47.1045V13.668ZM44.9951 12.1211H38.749V11.0781H41.2568V9.60156H42.5576V11.0781H44.9951V12.1211ZM41.9131 12.8125C42.417 12.8125 42.8701 12.9199 43.2725 13.1348C43.6787 13.3457 43.9971 13.6406 44.2275 14.0195C44.458 14.3984 44.5732 14.8281 44.5732 15.3086C44.5732 15.7891 44.458 16.2188 44.2275 16.5977C43.9971 16.9727 43.6787 17.2656 43.2725 17.4766C42.8701 17.6875 42.417 17.793 41.9131 17.793C41.4014 17.793 40.9424 17.6875 40.5361 17.4766C40.1299 17.2656 39.8115 16.9727 39.5811 16.5977C39.3506 16.2188 39.2373 15.7891 39.2412 15.3086C39.2373 14.8281 39.3506 14.3984 39.5811 14.0195C39.8115 13.6406 40.1299 13.3457 40.5361 13.1348C40.9424 12.9199 41.4014 12.8125 41.9131 12.8125ZM41.9131 13.8789C41.6357 13.8789 41.3877 13.9375 41.1689 14.0547C40.9541 14.1719 40.7861 14.3398 40.665 14.5586C40.5439 14.7734 40.4834 15.0234 40.4834 15.3086C40.4834 15.5938 40.5439 15.8438 40.665 16.0586C40.7861 16.2695 40.9541 16.4336 41.1689 16.5508C41.3877 16.6641 41.6357 16.7188 41.9131 16.7148C42.1826 16.7188 42.4229 16.6641 42.6338 16.5508C42.8486 16.4336 43.0166 16.2695 43.1377 16.0586C43.2627 15.8438 43.3271 15.5938 43.3311 15.3086C43.3271 15.0234 43.2627 14.7734 43.1377 14.5586C43.0166 14.3438 42.8486 14.1777 42.6338 14.0605C42.4229 13.9395 42.1826 13.8789 41.9131 13.8789ZM58.0264 20.043H56.7139V9.44922H58.0264V20.043ZM54.8623 10.5742C54.8623 12.2578 54.4814 13.7363 53.7197 15.0098C52.958 16.2793 51.6943 17.332 49.9287 18.168L49.249 17.125C50.6123 16.4766 51.6377 15.7012 52.3252 14.7988C53.0166 13.8926 53.4209 12.8281 53.5381 11.6055H49.7881V10.5742H54.8623Z" fill="white"/>
<path d="M78.3574 10.2856L78.3574 19.7142" stroke="white" strokeWidth="1.28571" strokeLinecap="round"/>
<path d="M83.0713 15L73.6427 15" stroke="white" strokeWidth="1.28571" strokeLinecap="round"/>
</svg>
