<svg width="18" height="18" viewBox="0 0 18 18" fill="none" xmlns="http://www.w3.org/2000/svg">
<path d="M4.36842 5.21053L4.96388 5.80598M11.9474 5.42845L12.7608 5.2105M9.39236 2.68419L10.2345 1.84208M8.57895 6.05263L9.39236 6.27058M8.57895 1C4.67739 1 1.46439 3.94811 1.04611 7.73819C0.995088 8.20047 1.37702 8.57895 1.84211 8.57895H15.3158C15.7809 8.57895 16.1628 8.20047 16.1118 7.73819C15.6935 3.94811 12.4805 1 8.57895 1ZM10.4737 13.5848L7.93984 12.0255C7.80711 11.9438 7.65433 11.9006 7.49849 11.9006H1.84211C1.37702 11.9006 1 12.2776 1 12.7427V16.1579C1 16.623 1.37702 17 1.84211 17H15.3158C15.7809 17 16.1579 16.623 16.1579 16.1579V12.7427C16.1579 12.2776 15.7809 11.9006 15.3158 11.9006H13.4489C13.293 11.9006 13.1403 11.9438 13.0075 12.0255L10.4737 13.5848Z" stroke="#111111" stroke-width="1.77778" stroke-linecap="round" stroke-linejoin="round"/>
</svg>
