<svg width="17" height="22" viewBox="0 0 17 22" fill="none" xmlns="http://www.w3.org/2000/svg">
<path d="M6.35714 21H13.8571C15.0406 21 16 20.0051 16 18.7778V8.1269C16 7.83222 15.8871 7.5496 15.6862 7.34123L9.88524 1.32544C9.68431 1.11706 9.41179 1 9.12763 1H3.14286C1.95939 1 1 1.99492 1 3.22222V15.4444M1 21L6.22716 15.5792M6.22716 15.5792C6.80883 16.1825 7.6124 16.5556 8.5 16.5556C10.2752 16.5556 11.7143 15.0632 11.7143 13.2222C11.7143 11.3813 10.2752 9.88889 8.5 9.88889C6.7248 9.88889 5.28571 11.3813 5.28571 13.2222C5.28571 14.1427 5.64549 14.976 6.22716 15.5792Z" stroke="#111111" stroke-width="1.875" stroke-linecap="round"/>
</svg>
