<svg width="94" height="40" viewBox="0 0 94 40" fill="none" xmlns="http://www.w3.org/2000/svg">
<rect width="90" height="40" rx="20" fill="#E8E8E8"/>
<path d="M66 18.8572L69.7441 22.4286" stroke="#3053F9" stroke-width="1.42857" stroke-linecap="round"/>
<path d="M76.4834 16L69.7441 22.4286" stroke="#3053F9" stroke-width="1.42857" stroke-linecap="round"/>
<path d="M23.6895 20.8301H12.4102V19.5859H23.6895V20.8301ZM22.3906 18.6152H13.791V14.2539H22.3223V15.4844H15.3086V17.3984H22.3906V18.6152ZM18.0293 21.6914C18.9134 21.6868 19.6745 21.7734 20.3125 21.9512C20.9551 22.1243 21.4473 22.3796 21.7891 22.7168C22.1309 23.054 22.304 23.4596 22.3086 23.9336C22.304 24.4121 22.1309 24.82 21.7891 25.1572C21.4473 25.499 20.9574 25.7588 20.3193 25.9365C19.6813 26.1143 18.918 26.2031 18.0293 26.2031C17.1315 26.2031 16.359 26.1143 15.7119 25.9365C15.0693 25.7588 14.5771 25.499 14.2354 25.1572C13.8936 24.82 13.7227 24.4121 13.7227 23.9336C13.7227 23.4596 13.8936 23.054 14.2354 22.7168C14.5771 22.3796 15.0716 22.1243 15.7188 21.9512C16.3659 21.7734 17.1361 21.6868 18.0293 21.6914ZM18.0293 22.8535C17.127 22.8535 16.4388 22.9469 15.9648 23.1338C15.4909 23.3161 15.2585 23.5827 15.2676 23.9336C15.263 24.2936 15.4954 24.5671 15.9648 24.7539C16.4342 24.9362 17.1224 25.0273 18.0293 25.0273C18.918 25.0273 19.5993 24.9362 20.0732 24.7539C20.5472 24.5671 20.7865 24.2936 20.791 23.9336C20.7865 23.5872 20.5449 23.3206 20.0664 23.1338C19.5924 22.9469 18.9134 22.8535 18.0293 22.8535ZM35.7891 21.7734H24.4961V20.543H29.3906V19.5176H25.9316V16.2363H32.877V15.3203H25.8906V14.1309H34.3945V17.3438H27.4355V18.3281H34.6406V19.5176H30.8945V20.543H35.7891V21.7734ZM34.4629 26.1348H32.9316V23.7559H25.7539V22.5527H34.4629V26.1348ZM40.3418 14.3906C40.9388 14.3906 41.472 14.4954 41.9414 14.7051C42.4108 14.9102 42.7777 15.2018 43.042 15.5801C43.3063 15.9583 43.4408 16.3913 43.4453 16.8789C43.4408 17.2799 43.3405 17.6491 43.1445 17.9863C42.9531 18.319 42.6842 18.597 42.3379 18.8203C41.9915 19.0436 41.5905 19.1986 41.1348 19.2852V20.29C42.2331 20.2262 43.2402 20.1283 44.1562 19.9961L44.2793 21.1035C43.1354 21.3086 41.9414 21.4453 40.6973 21.5137C39.4577 21.5775 38.1406 21.6094 36.7461 21.6094L36.582 20.3926H37.1973C37.8581 20.3926 38.6602 20.3812 39.6035 20.3584V19.292C39.1341 19.2145 38.7194 19.0641 38.3594 18.8408C38.0039 18.6175 37.7282 18.3372 37.5322 18C37.3408 17.6628 37.2474 17.2891 37.252 16.8789C37.2474 16.3913 37.375 15.9583 37.6348 15.5801C37.8991 15.2018 38.266 14.9102 38.7354 14.7051C39.2048 14.4954 39.7402 14.3906 40.3418 14.3906ZM40.3418 15.5527C40.0137 15.5527 39.722 15.6051 39.4668 15.71C39.2161 15.8148 39.0202 15.9674 38.8789 16.168C38.7376 16.3685 38.6693 16.6055 38.6738 16.8789C38.6693 17.1432 38.7376 17.3757 38.8789 17.5762C39.0202 17.7721 39.2161 17.9248 39.4668 18.0342C39.722 18.1436 40.0137 18.2005 40.3418 18.2051C40.8385 18.196 41.2396 18.0729 41.5449 17.8359C41.8503 17.599 42.0052 17.2799 42.0098 16.8789C42.0052 16.4688 41.8503 16.1452 41.5449 15.9082C41.2396 15.6712 40.8385 15.5527 40.3418 15.5527ZM46.3984 17.8633H48.0664V19.1211H46.3984V23.3047H44.8809V13.8711H46.3984V17.8633ZM46.8359 25.957H38.2773V22.4707H39.7949V24.7266H46.8359V25.957ZM60.002 24.7812H48.709V23.5234H51.7031V21.4863H50.0488V17.4531H57.1582V15.9355H50.0215V14.7051H58.6621V18.6699H51.5664V20.2559H58.9492V21.4863H57.1445V23.5234H60.002V24.7812ZM55.6543 23.5234V21.4863H53.1797V23.5234H55.6543Z" fill="#111111"/>
</svg>
