<svg width="94" height="40" viewBox="0 0 94 40" fill="none" xmlns="http://www.w3.org/2000/svg">
<g filter="url(#filter0_i_265_349)">
<rect width="90" height="40" rx="20" fill="#3053F9"/>
</g>
<path d="M33.6895 19.8301H22.4102V18.5859H33.6895V19.8301ZM32.3906 17.6152H23.791V13.2539H32.3223V14.4844H25.3086V16.3984H32.3906V17.6152ZM28.0293 20.6914C28.9134 20.6868 29.6745 20.7734 30.3125 20.9512C30.9551 21.1243 31.4473 21.3796 31.7891 21.7168C32.1309 22.054 32.304 22.4596 32.3086 22.9336C32.304 23.4121 32.1309 23.82 31.7891 24.1572C31.4473 24.499 30.9574 24.7588 30.3193 24.9365C29.6813 25.1143 28.918 25.2031 28.0293 25.2031C27.1315 25.2031 26.359 25.1143 25.7119 24.9365C25.0693 24.7588 24.5771 24.499 24.2354 24.1572C23.8936 23.82 23.7227 23.4121 23.7227 22.9336C23.7227 22.4596 23.8936 22.054 24.2354 21.7168C24.5771 21.3796 25.0716 21.1243 25.7188 20.9512C26.3659 20.7734 27.1361 20.6868 28.0293 20.6914ZM28.0293 21.8535C27.127 21.8535 26.4388 21.9469 25.9648 22.1338C25.4909 22.3161 25.2585 22.5827 25.2676 22.9336C25.263 23.2936 25.4954 23.5671 25.9648 23.7539C26.4342 23.9362 27.1224 24.0273 28.0293 24.0273C28.918 24.0273 29.5993 23.9362 30.0732 23.7539C30.5472 23.5671 30.7865 23.2936 30.791 22.9336C30.7865 22.5872 30.5449 22.3206 30.0664 22.1338C29.5924 21.9469 28.9134 21.8535 28.0293 21.8535ZM45.7891 20.7734H34.4961V19.543H39.3906V18.5176H35.9316V15.2363H42.877V14.3203H35.8906V13.1309H44.3945V16.3438H37.4355V17.3281H44.6406V18.5176H40.8945V19.543H45.7891V20.7734ZM44.4629 25.1348H42.9316V22.7559H35.7539V21.5527H44.4629V25.1348ZM56.2891 17.7793H58.1895V19.0371H56.2891V25.2168H54.7852V12.8574H56.2891V17.7793ZM53.8281 15.9746H46.541V14.7578H49.4668V13.0352H50.9844V14.7578H53.8281V15.9746ZM50.2324 16.7812C50.8203 16.7812 51.349 16.9066 51.8184 17.1572C52.2923 17.4033 52.6637 17.7474 52.9326 18.1895C53.2015 18.6315 53.3359 19.1328 53.3359 19.6934C53.3359 20.2539 53.2015 20.7552 52.9326 21.1973C52.6637 21.6348 52.2923 21.9766 51.8184 22.2227C51.349 22.4688 50.8203 22.5918 50.2324 22.5918C49.6354 22.5918 49.0999 22.4688 48.626 22.2227C48.152 21.9766 47.7806 21.6348 47.5117 21.1973C47.2428 20.7552 47.1107 20.2539 47.1152 19.6934C47.1107 19.1328 47.2428 18.6315 47.5117 18.1895C47.7806 17.7474 48.152 17.4033 48.626 17.1572C49.0999 16.9066 49.6354 16.7812 50.2324 16.7812ZM50.2324 18.0254C49.9089 18.0254 49.6195 18.0938 49.3643 18.2305C49.1136 18.3672 48.9176 18.5632 48.7764 18.8184C48.6351 19.069 48.5645 19.3607 48.5645 19.6934C48.5645 20.026 48.6351 20.3177 48.7764 20.5684C48.9176 20.8145 49.1136 21.0059 49.3643 21.1426C49.6195 21.2747 49.9089 21.3385 50.2324 21.334C50.5469 21.3385 50.8271 21.2747 51.0732 21.1426C51.3239 21.0059 51.5199 20.8145 51.6611 20.5684C51.807 20.3177 51.8822 20.026 51.8867 19.6934C51.8822 19.3607 51.807 19.069 51.6611 18.8184C51.5199 18.5677 51.3239 18.374 51.0732 18.2373C50.8271 18.096 50.5469 18.0254 50.2324 18.0254ZM69.0312 25.2168H67.5V12.8574H69.0312V25.2168ZM65.3398 14.1699C65.3398 16.1341 64.8955 17.859 64.0068 19.3447C63.1182 20.8258 61.6439 22.054 59.584 23.0293L58.791 21.8125C60.3815 21.056 61.5778 20.1514 62.3799 19.0986C63.1865 18.0413 63.6582 16.7995 63.7949 15.373H59.4199V14.1699H65.3398Z" fill="white"/>
<defs>
<filter id="filter0_i_265_349" x="-4" y="0" width="94" height="44" filterUnits="userSpaceOnUse" color-interpolation-filters="sRGB">
<feFlood flood-opacity="0" result="BackgroundImageFix"/>
<feBlend mode="normal" in="SourceGraphic" in2="BackgroundImageFix" result="shape"/>
<feColorMatrix in="SourceAlpha" type="matrix" values="0 0 0 0 0 0 0 0 0 0 0 0 0 0 0 0 0 0 127 0" result="hardAlpha"/>
<feOffset dx="-4" dy="4"/>
<feGaussianBlur stdDeviation="2"/>
<feComposite in2="hardAlpha" operator="arithmetic" k2="-1" k3="1"/>
<feColorMatrix type="matrix" values="0 0 0 0 1 0 0 0 0 1 0 0 0 0 1 0 0 0 0.2 0"/>
<feBlend mode="normal" in2="shape" result="effect1_innerShadow_265_349"/>
</filter>
</defs>
</svg>