<svg width="94" height="40" viewBox="0 0 94 40" fill="none" xmlns="http://www.w3.org/2000/svg">
<rect width="90" height="40" rx="20" fill="#E8E8E8"/>
<path d="M31.6895 19.8301H20.4102V18.5859H31.6895V19.8301ZM30.3906 17.6152H21.791V13.2539H30.3223V14.4844H23.3086V16.3984H30.3906V17.6152ZM26.0293 20.6914C26.9134 20.6868 27.6745 20.7734 28.3125 20.9512C28.9551 21.1243 29.4473 21.3796 29.7891 21.7168C30.1309 22.054 30.304 22.4596 30.3086 22.9336C30.304 23.4121 30.1309 23.82 29.7891 24.1572C29.4473 24.499 28.9574 24.7588 28.3193 24.9365C27.6813 25.1143 26.918 25.2031 26.0293 25.2031C25.1315 25.2031 24.359 25.1143 23.7119 24.9365C23.0693 24.7588 22.5771 24.499 22.2354 24.1572C21.8936 23.82 21.7227 23.4121 21.7227 22.9336C21.7227 22.4596 21.8936 22.054 22.2354 21.7168C22.5771 21.3796 23.0716 21.1243 23.7188 20.9512C24.3659 20.7734 25.1361 20.6868 26.0293 20.6914ZM26.0293 21.8535C25.127 21.8535 24.4388 21.9469 23.9648 22.1338C23.4909 22.3161 23.2585 22.5827 23.2676 22.9336C23.263 23.2936 23.4954 23.5671 23.9648 23.7539C24.4342 23.9362 25.1224 24.0273 26.0293 24.0273C26.918 24.0273 27.5993 23.9362 28.0732 23.7539C28.5472 23.5671 28.7865 23.2936 28.791 22.9336C28.7865 22.5872 28.5449 22.3206 28.0664 22.1338C27.5924 21.9469 26.9134 21.8535 26.0293 21.8535ZM43.7891 20.7734H32.4961V19.543H37.3906V18.5176H33.9316V15.2363H40.877V14.3203H33.8906V13.1309H42.3945V16.3438H35.4355V17.3281H42.6406V18.5176H38.8945V19.543H43.7891V20.7734ZM42.4629 25.1348H40.9316V22.7559H33.7539V21.5527H42.4629V25.1348ZM54.2891 17.7793H56.1895V19.0371H54.2891V25.2168H52.7852V12.8574H54.2891V17.7793ZM51.8281 15.9746H44.541V14.7578H47.4668V13.0352H48.9844V14.7578H51.8281V15.9746ZM48.2324 16.7812C48.8203 16.7812 49.349 16.9066 49.8184 17.1572C50.2923 17.4033 50.6637 17.7474 50.9326 18.1895C51.2015 18.6315 51.3359 19.1328 51.3359 19.6934C51.3359 20.2539 51.2015 20.7552 50.9326 21.1973C50.6637 21.6348 50.2923 21.9766 49.8184 22.2227C49.349 22.4688 48.8203 22.5918 48.2324 22.5918C47.6354 22.5918 47.0999 22.4688 46.626 22.2227C46.152 21.9766 45.7806 21.6348 45.5117 21.1973C45.2428 20.7552 45.1107 20.2539 45.1152 19.6934C45.1107 19.1328 45.2428 18.6315 45.5117 18.1895C45.7806 17.7474 46.152 17.4033 46.626 17.1572C47.0999 16.9066 47.6354 16.7812 48.2324 16.7812ZM48.2324 18.0254C47.9089 18.0254 47.6195 18.0938 47.3643 18.2305C47.1136 18.3672 46.9176 18.5632 46.7764 18.8184C46.6351 19.069 46.5645 19.3607 46.5645 19.6934C46.5645 20.026 46.6351 20.3177 46.7764 20.5684C46.9176 20.8145 47.1136 21.0059 47.3643 21.1426C47.6195 21.2747 47.9089 21.3385 48.2324 21.334C48.5469 21.3385 48.8271 21.2747 49.0732 21.1426C49.3239 21.0059 49.5199 20.8145 49.6611 20.5684C49.807 20.3177 49.8822 20.026 49.8867 19.6934C49.8822 19.3607 49.807 19.069 49.6611 18.8184C49.5199 18.5677 49.3239 18.374 49.0732 18.2373C48.8271 18.096 48.5469 18.0254 48.2324 18.0254ZM67.0312 25.2168H65.5V12.8574H67.0312V25.2168ZM63.3398 14.1699C63.3398 16.1341 62.8955 17.859 62.0068 19.3447C61.1182 20.8258 59.6439 22.054 57.584 23.0293L56.791 21.8125C58.3815 21.056 59.5778 20.1514 60.3799 19.0986C61.1865 18.0413 61.6582 16.7995 61.7949 15.373H57.4199V14.1699H63.3398Z" fill="#707070"/>
</svg>