<svg width="80" height="45" viewBox="0 0 70 53" fill="none" xmlns="http://www.w3.org/2000/svg">
<path d="M2.26 42.02V31.26L6.16 31.06L6.06 33L7.18 31.24H10.06C11.4067 31.24 12.54 31.3933 13.46 31.7C14.3933 31.9933 15.1467 32.4333 15.72 33.02C16.3067 33.5933 16.7267 34.3067 16.98 35.16C17.2333 36 17.36 36.96 17.36 38.04V42.02H14.02V38.06C14.02 37.34 13.9133 36.7267 13.7 36.22C13.4867 35.7 13.18 35.28 12.78 34.96C12.38 34.64 11.8867 34.4067 11.3 34.26C10.7267 34.1133 10.0733 34.04 9.34 34.04H6.02L5.66 42.02H2.26ZM0.6 44.36L18.6 44.16L18.2 47.2H0.6V44.36ZM20.0992 31.26L31.8992 31.06L31.4992 34.1H30.4792L29.9592 44.2L31.9992 44.16L31.5992 47.2H19.9992V44.36L21.6992 44.34L21.3192 34.1H20.0992V31.26ZM32.6192 47.2V31.06L36.5192 30.86L36.3192 37.3L38.1792 37.2L37.7792 40.24H36.2192L36.0192 47.2H32.6192ZM25.0592 44.28L26.7792 44.24V34.1H25.0592V44.28ZM44.9984 47.1C43.9984 47.1 43.1384 46.96 42.4184 46.68C41.6984 46.4133 41.1051 45.96 40.6384 45.32C40.1851 44.6933 39.8451 43.8667 39.6184 42.84C39.4051 41.8 39.2984 40.5133 39.2984 38.98C39.2984 37.4467 39.4051 36.1667 39.6184 35.14C39.8451 34.1 40.1851 33.2667 40.6384 32.64C41.1051 32 41.6984 31.5467 42.4184 31.28C43.1384 31 43.9984 30.86 44.9984 30.86C45.9984 30.86 46.8584 31 47.5784 31.28C48.2984 31.5467 48.8851 32 49.3384 32.64C49.8051 33.2667 50.1451 34.1 50.3584 35.14C50.5851 36.1667 50.6984 37.4467 50.6984 38.98C50.6984 40.3667 50.6118 41.5467 50.4384 42.52C50.2651 43.4933 49.9918 44.3 49.6184 44.94C49.2451 45.58 48.7651 46.0667 48.1784 46.4C47.5918 46.7333 46.8918 46.9467 46.0784 47.04V44.64L44.9984 47.1ZM44.9984 44.08C45.3451 44.08 45.6451 44.0067 45.8984 43.86C46.1518 43.7 46.3584 43.4333 46.5184 43.06C46.6784 42.6733 46.7984 42.1533 46.8784 41.5C46.9584 40.8333 46.9984 39.9933 46.9984 38.98C46.9984 37.9667 46.9584 37.1333 46.8784 36.48C46.7984 35.8133 46.6784 35.2933 46.5184 34.92C46.3584 34.5333 46.1518 34.2667 45.8984 34.12C45.6451 33.96 45.3451 33.88 44.9984 33.88C44.6518 33.88 44.3518 33.96 44.0984 34.12C43.8451 34.2667 43.6384 34.5333 43.4784 34.92C43.3184 35.2933 43.1984 35.8133 43.1184 36.48C43.0384 37.1333 42.9984 37.9667 42.9984 38.98C42.9984 39.9933 43.0384 40.8333 43.1184 41.5C43.1984 42.1533 43.3184 42.6733 43.4784 43.06C43.6384 43.4333 43.8451 43.7 44.0984 43.86C44.3518 44.0067 44.6518 44.08 44.9984 44.08ZM52.4184 47.2V31.06L56.3184 30.86L55.8184 47.2H52.4184ZM59.5823 36.66L70.3223 36.5V34.1H59.3823V31.26L74.3023 31.06L73.8623 42H70.3223V39.5H59.5823V36.66ZM58.0023 44.36L76.0023 44.16L75.6023 47.2H58.0023V44.36Z" fill="#111111"/>
<g filter="url(#filter0_if_9_911)">
<path d="M74.0248 14.7113L86.2796 2.82606C86.6511 2.46576 87.255 2.852 87.0837 3.34035L83.9319 12.3267C83.8326 12.6099 84.0087 12.9151 84.3036 12.9708L88.8448 13.8292C89.2375 13.9035 89.3812 14.3911 89.0916 14.6665L76.9276 26.2298C76.552 26.5868 75.9515 26.1931 76.1291 25.7064L79.4106 16.7101C79.5198 16.4108 79.3191 16.0885 79.0023 16.0545L74.3138 15.5509C73.9007 15.5065 73.7265 15.0006 74.0248 14.7113Z" fill="url(#paint0_linear_9_911)"/>
</g>
<path d="M1.12 25.2V9.26L5.02 9.06L4.96 10.74L6.04 9.04H8.06C9.32667 9.04 10.42 9.26 11.34 9.7C12.26 10.1267 13.0133 10.7133 13.6 11.46C14.2 12.2067 14.64 13.0933 14.92 14.12C15.2133 15.1333 15.36 16.2267 15.36 17.4C15.36 18.48 15.2267 19.5067 14.96 20.48C14.7067 21.4533 14.3 22.3 13.74 23.02C13.1933 23.7533 12.4867 24.3333 11.62 24.76C10.7533 25.1867 9.71333 25.4 8.5 25.4C7.71333 25.4 6.98 25.2933 6.3 25.08C5.63333 24.88 5.04667 24.5867 4.54 24.2L4.52 25.2H1.12ZM4.92 11.84L4.56 23.64L5.76 21.2C6.17333 21.5867 6.59333 21.8867 7.02 22.1C7.46 22.3 7.96 22.4 8.52 22.4C9.53333 22.4 10.3067 21.9667 10.84 21.1C11.3867 20.22 11.66 18.9933 11.66 17.42C11.66 16.54 11.5733 15.7533 11.4 15.06C11.24 14.3667 10.9733 13.78 10.6 13.3C10.24 12.82 9.77333 12.46 9.2 12.22C8.62667 11.9667 7.94 11.84 7.14 11.84H4.92ZM24.1514 25.4C22.9914 25.4 21.9647 25.2467 21.0714 24.94C20.1781 24.6333 19.4181 24.1467 18.7914 23.48C18.1781 22.8133 17.7114 21.96 17.3914 20.92C17.0714 19.8667 16.9114 18.6 16.9114 17.12C16.9114 15.64 17.0714 14.38 17.3914 13.34C17.7114 12.2867 18.1781 11.4267 18.7914 10.76C19.4181 10.08 20.1781 9.58667 21.0714 9.28C21.9647 8.97333 22.9914 8.82 24.1514 8.82C25.3114 8.82 26.3381 8.97333 27.2314 9.28C28.1247 9.58667 28.8781 10.08 29.4914 10.76C30.1181 11.4267 30.5914 12.2867 30.9114 13.34C31.2314 14.38 31.3914 15.64 31.3914 17.12C31.3914 18.4533 31.2514 19.6133 30.9714 20.6C30.6914 21.5867 30.2847 22.4133 29.7514 23.08C29.2314 23.7467 28.5847 24.2667 27.8114 24.64C27.0514 25.0133 26.1914 25.2467 25.2314 25.34V22.94L24.1514 25.4ZM24.1514 22.38C24.6447 22.38 25.1047 22.3 25.5314 22.14C25.9714 21.9667 26.3514 21.68 26.6714 21.28C26.9914 20.8667 27.2381 20.3267 27.4114 19.66C27.5981 18.98 27.6914 18.1333 27.6914 17.12C27.6914 16.1067 27.5981 15.26 27.4114 14.58C27.2381 13.9 26.9914 13.36 26.6714 12.96C26.3514 12.5467 25.9714 12.26 25.5314 12.1C25.1047 11.9267 24.6447 11.84 24.1514 11.84C23.6581 11.84 23.1914 11.9267 22.7514 12.1C22.3247 12.26 21.9514 12.5467 21.6314 12.96C21.3114 13.36 21.0581 13.9 20.8714 14.58C20.6981 15.26 20.6114 16.1067 20.6114 17.12C20.6114 18.1333 20.6981 18.98 20.8714 19.66C21.0581 20.3267 21.3114 20.8667 21.6314 21.28C21.9514 21.68 22.3247 21.9667 22.7514 22.14C23.1914 22.3 23.6581 22.38 24.1514 22.38ZM33.3075 25.2V9.26L37.2075 9.06L43.8075 20.14V9.26L47.6075 9.06L47.1075 25.2H43.7075L36.9275 14.44L36.6075 25.2H33.3075ZM60.3275 25.2V12.1H55.2875V9.26L69.2875 9.06L68.8875 12.1H64.1675L63.7275 25.2H60.3275Z" fill="#111111"/>
<path d="M53.7114 8.26L53.3714 13.4H51.4114V11.3L49.8114 11.4V8.46L53.7114 8.26Z" fill="#3053F9"/>
<defs>
<filter id="filter0_if_9_911" x="73.55" y="2.3593" width="16.0198" height="25.3095" filterUnits="userSpaceOnUse" color-interpolation-filters="sRGB">
<feFlood flood-opacity="0" result="BackgroundImageFix"/>
<feBlend mode="normal" in="SourceGraphic" in2="BackgroundImageFix" result="shape"/>
<feColorMatrix in="SourceAlpha" type="matrix" values="0 0 0 0 0 0 0 0 0 0 0 0 0 0 0 0 0 0 127 0" result="hardAlpha"/>
<feOffset dy="1.30109"/>
<feGaussianBlur stdDeviation="0.650545"/>
<feComposite in2="hardAlpha" operator="arithmetic" k2="-1" k3="1"/>
<feColorMatrix type="matrix" values="0 0 0 0 0.185287 0 0 0 0 0.240234 0 0 0 0 0.180509 0 0 0 0.25 0"/>
<feBlend mode="normal" in2="shape" result="effect1_innerShadow_9_911"/>
<feGaussianBlur stdDeviation="0.162636" result="effect2_foregroundBlur_9_911"/>
</filter>
<linearGradient id="paint0_linear_9_911" x1="86.5808" y1="2.72328" x2="82.0441" y2="14.5039" gradientUnits="userSpaceOnUse">
<stop stop-color="#F1FFDE"/>
<stop offset="1" stop-color="#C5FE79"/>
</linearGradient>
</defs>
</svg>
