<svg width="95" height="30" viewBox="0 0 95 30" fill="none" xmlns="http://www.w3.org/2000/svg">
<rect x="0.649414" width="94.3505" height="30" rx="15" fill="#E8E8E8"/>
<path d="M27.4307 16.8789H23.2354V20.0547H21.9463V16.8789H17.7744V15.8125H27.4307V16.8789ZM26.5283 11.7344H23.2588C23.3018 12.0898 23.4775 12.4355 23.7861 12.7715C24.0947 13.1074 24.5166 13.3984 25.0518 13.6445C25.5869 13.8906 26.1963 14.0547 26.8799 14.1367L26.3994 15.168C25.54 15.0586 24.7783 14.8262 24.1143 14.4707C23.4541 14.1113 22.9482 13.6719 22.5967 13.1523C22.2451 13.6758 21.7373 14.1152 21.0732 14.4707C20.4092 14.8262 19.6416 15.0586 18.7705 15.168L18.3018 14.1367C18.9854 14.0547 19.5947 13.8926 20.1299 13.6504C20.665 13.4043 21.0889 13.1133 21.4014 12.7773C21.7139 12.4414 21.8916 12.0938 21.9346 11.7344H18.665V10.7031H21.9463V9.46094H23.2354V10.7031H26.5283V11.7344ZM36.4424 13.5859H38.0127V14.6758H36.4424V20.0195H35.1416V9.44922H36.4424V13.5859ZM33.6416 10.5508C33.6416 14.0273 32.0361 16.5547 28.8252 18.1328L28.0869 17.125C29.376 16.4844 30.3701 15.709 31.0693 14.7988C31.7725 13.8887 32.1904 12.832 32.3232 11.6289H28.6611V10.5508H33.6416ZM44.5635 9.90625C45.0752 9.90625 45.5322 9.99609 45.9346 10.1758C46.3369 10.3516 46.6514 10.6016 46.8779 10.9258C47.1045 11.25 47.2197 11.6211 47.2236 12.0391C47.2197 12.3828 47.1338 12.6992 46.9658 12.9883C46.8018 13.2734 46.5713 13.5117 46.2744 13.7031C45.9775 13.8945 45.6338 14.0273 45.2432 14.1016V14.9629C46.1846 14.9082 47.0479 14.8242 47.833 14.7109L47.9385 15.6602C46.958 15.8359 45.9346 15.9531 44.8682 16.0117C43.8057 16.0664 42.6768 16.0938 41.4814 16.0938L41.3408 15.0508H41.8682C42.4346 15.0508 43.1221 15.041 43.9307 15.0215V14.1074C43.5283 14.041 43.1729 13.9121 42.8643 13.7207C42.5596 13.5293 42.3232 13.2891 42.1553 13C41.9912 12.7109 41.9111 12.3906 41.915 12.0391C41.9111 11.6211 42.0205 11.25 42.2432 10.9258C42.4697 10.6016 42.7842 10.3516 43.1865 10.1758C43.5889 9.99609 44.0479 9.90625 44.5635 9.90625ZM44.5635 10.9023C44.2822 10.9023 44.0322 10.9473 43.8135 11.0371C43.5986 11.127 43.4307 11.2578 43.3096 11.4297C43.1885 11.6016 43.1299 11.8047 43.1338 12.0391C43.1299 12.2656 43.1885 12.4648 43.3096 12.6367C43.4307 12.8047 43.5986 12.9355 43.8135 13.0293C44.0322 13.123 44.2822 13.1719 44.5635 13.1758C44.9893 13.168 45.333 13.0625 45.5947 12.8594C45.8564 12.6562 45.9893 12.3828 45.9932 12.0391C45.9893 11.6875 45.8564 11.4102 45.5947 11.207C45.333 11.0039 44.9893 10.9023 44.5635 10.9023ZM49.7549 12.8828H51.1846V13.9609H49.7549V17.5469H48.4541V9.46094H49.7549V12.8828ZM50.1299 19.8203H42.7939V16.832H44.0947V18.7656H50.1299V19.8203ZM61.415 18.8125H51.7354V17.7344H54.3018V15.9883H52.8838V12.5312H58.9775V11.2305H52.8604V10.1758H60.2666V13.5742H54.1846V14.9336H60.5127V15.9883H58.9658V17.7344H61.415V18.8125ZM57.6885 17.7344V15.9883H55.5674V17.7344H57.6885Z" fill="#111111"/>
<path d="M72.9844 14.8572L76.7284 18.4286" stroke="#3053F9" stroke-width="1.42857" stroke-linecap="round"/>
<path d="M83.4678 12L76.7285 18.4286" stroke="#3053F9" stroke-width="1.42857" stroke-linecap="round"/>
</svg>
