<svg width="151" height="193" viewBox="0 0 151 193" fill="none" xmlns="http://www.w3.org/2000/svg">
<g filter="url(#filter0_d_672_987)">
<rect x="147" y="174" width="143" height="162" rx="8.69074" transform="rotate(-180 147 174)" fill="#F0F1F5"/>
<rect x="12" y="64" width="128" height="103" rx="6" fill="white"/>
<path d="M25.207 72.0078C25.2031 72.4922 25.3047 72.9551 25.5117 73.3965C25.7227 73.834 26.0254 74.2207 26.4199 74.5566C26.8145 74.8926 27.2773 75.1484 27.8086 75.3242L27.2461 76.2031C26.6445 75.9922 26.1191 75.6816 25.6699 75.2715C25.2246 74.8574 24.8828 74.375 24.6445 73.8242C24.4062 74.4219 24.0605 74.9434 23.6074 75.3887C23.1582 75.8301 22.625 76.1602 22.0078 76.3789L21.4453 75.5117C21.9805 75.3203 22.4453 75.0449 22.8398 74.6855C23.2383 74.3262 23.543 73.916 23.7539 73.4551C23.9648 72.9902 24.0703 72.5078 24.0703 72.0078V71H25.207V72.0078ZM30.0938 80.9961H28.9805V78.207H22.9805V77.3047H30.0938V80.9961ZM30.0938 76.8008H28.9805V70.4961H30.0938V76.8008ZM40.0078 73.5312H41.543V74.457H40.0078V78.0898H38.8945V70.4844H40.0078V73.5312ZM36.9141 72.2891H33.3281V75.3477H33.5742C34.5469 75.3477 35.3457 75.3242 35.9707 75.2773C36.5996 75.2305 37.2227 75.1445 37.8398 75.0195L37.9688 75.9219C37.2773 76.0586 36.5762 76.1523 35.8652 76.2031C35.1543 76.25 34.2188 76.2734 33.0586 76.2734H32.2266V71.3867H36.9141V72.2891ZM40.4531 80.7734H33.3516V77.3047H34.4648V79.8711H40.4531V80.7734Z" fill="#A0A0A0"/>
<rect x="12" y="34" width="128" height="26" rx="6" fill="white"/>
<path d="M26.1211 48.0938C26.8789 48.0938 27.5352 48.1719 28.0898 48.3281C28.6484 48.4805 29.0781 48.7031 29.3789 48.9961C29.6797 49.2852 29.832 49.6328 29.8359 50.0391C29.832 50.4414 29.6777 50.7891 29.373 51.082C29.0723 51.375 28.6426 51.5977 28.084 51.75C27.5293 51.9023 26.875 51.9766 26.1211 51.9727C25.375 51.9766 24.7227 51.9004 24.1641 51.7441C23.6094 51.5918 23.1816 51.3691 22.8809 51.0762C22.5801 50.7871 22.4297 50.4414 22.4297 50.0391C22.4297 49.6328 22.5801 49.2852 22.8809 48.9961C23.1816 48.7031 23.6094 48.4805 24.1641 48.3281C24.7188 48.1719 25.3711 48.0938 26.1211 48.0938ZM26.1211 48.9375C25.5938 48.9375 25.1348 48.9824 24.7441 49.0723C24.3535 49.1582 24.0547 49.2852 23.8477 49.4531C23.6406 49.6172 23.5391 49.8125 23.543 50.0391C23.5391 50.2617 23.6406 50.4551 23.8477 50.6191C24.0547 50.7793 24.3516 50.9023 24.7383 50.9883C25.1289 51.0742 25.5898 51.1172 26.1211 51.1172C26.6523 51.1172 27.1133 51.0742 27.5039 50.9883C27.8984 50.9023 28.2012 50.7793 28.4121 50.6191C28.623 50.4551 28.7305 50.2617 28.7344 50.0391C28.7305 49.8125 28.623 49.6172 28.4121 49.4531C28.2012 49.2852 27.8984 49.1582 27.5039 49.0723C27.1133 48.9824 26.6523 48.9375 26.1211 48.9375ZM29.7539 42.8906C29.7539 43.457 29.7363 43.9434 29.7012 44.3496C29.6699 44.7559 29.5898 45.1992 29.4609 45.6797L28.3711 45.5625C28.4961 45.0859 28.5742 44.6582 28.6055 44.2793C28.6367 43.8965 28.6523 43.4375 28.6523 42.9023H22.5117V42.0117H29.7539V42.8906ZM30.9492 47.2266H21.3984V46.3242H25.2305V44.3555H26.3203V46.3242H30.9492V47.2266ZM41.332 47.7539H31.7578V46.8516H35.9883V45.7148H33.0117V41.7422H34.1133V42.8789H38.9766V41.7422H40.0898V45.7148H37.0898V46.8516H41.332V47.7539ZM40.1602 51.9961H39.0352V49.582H32.8242V48.6914H40.1602V51.9961ZM38.9766 44.8242V43.7109H34.1133V44.8242H38.9766ZM50.9766 43.2188H45.0703V42.3633H47.5312V41.3672H48.6328V42.3633H50.9766V43.2188ZM48.0703 43.6641C48.543 43.6641 48.9609 43.7383 49.3242 43.8867C49.6914 44.0312 49.9766 44.2383 50.1797 44.5078C50.3867 44.7734 50.4922 45.0859 50.4961 45.4453C50.4922 45.8008 50.3867 46.1133 50.1797 46.3828C49.9766 46.6523 49.6914 46.8613 49.3242 47.0098C48.9609 47.1543 48.543 47.2266 48.0703 47.2266C47.5977 47.2266 47.1777 47.1543 46.8105 47.0098C46.4473 46.8613 46.1641 46.6523 45.9609 46.3828C45.7578 46.1133 45.6562 45.8008 45.6562 45.4453C45.6562 45.0859 45.7578 44.7734 45.9609 44.5078C46.1641 44.2383 46.4473 44.0312 46.8105 43.8867C47.1777 43.7383 47.5977 43.6641 48.0703 43.6641ZM48.0703 44.4844C47.7969 44.4805 47.5566 44.5176 47.3496 44.5957C47.1426 44.6738 46.9824 44.7871 46.8691 44.9355C46.7559 45.0801 46.6992 45.25 46.6992 45.4453C46.6992 45.6406 46.7559 45.8145 46.8691 45.9668C46.9824 46.1152 47.1426 46.2305 47.3496 46.3125C47.5605 46.3906 47.8008 46.4297 48.0703 46.4297C48.3398 46.4297 48.5781 46.3887 48.7852 46.3066C48.9922 46.2246 49.1543 46.1094 49.2715 45.9609C49.3887 45.8125 49.4492 45.6406 49.4531 45.4453C49.4492 45.25 49.3887 45.0801 49.2715 44.9355C49.1543 44.7871 48.9922 44.6738 48.7852 44.5957C48.5781 44.5176 48.3398 44.4805 48.0703 44.4844ZM53.8008 47.332H52.6992V46.4648H51V45.5977H52.6992V44.5898H51.0117V43.7227H52.6992V41.4961H53.8008V47.332ZM53.8008 50.1797H48.0703V51.0469H54.0938V51.8906H46.957V49.4062H52.6992V48.6328H46.9336V47.8008H53.8008V50.1797ZM63.6914 44.1562H65.2031V45.0703H63.6914V47.6953H62.5664V41.4961H63.6914V44.1562ZM60.293 47.8945C61.0078 47.8945 61.625 47.9746 62.1445 48.1348C62.668 48.2949 63.0703 48.5293 63.3516 48.8379C63.6328 49.1426 63.7734 49.5078 63.7734 49.9336C63.7734 50.3594 63.6328 50.7246 63.3516 51.0293C63.0703 51.3379 62.668 51.5723 62.1445 51.7324C61.6211 51.8965 61.0039 51.9766 60.293 51.9727C59.5742 51.9766 58.9492 51.8965 58.418 51.7324C57.8867 51.5723 57.4785 51.3379 57.1934 51.0293C56.9082 50.7246 56.7656 50.3594 56.7656 49.9336C56.7656 49.5078 56.9082 49.1426 57.1934 48.8379C57.4785 48.5293 57.8848 48.2949 58.4121 48.1348C58.9434 47.9746 59.5703 47.8945 60.293 47.8945ZM60.293 48.7969C59.7891 48.793 59.3535 48.8359 58.9863 48.9258C58.623 49.0117 58.3438 49.1406 58.1484 49.3125C57.957 49.4844 57.8633 49.6914 57.8672 49.9336C57.8633 50.1719 57.957 50.3789 58.1484 50.5547C58.3438 50.7266 58.623 50.8574 58.9863 50.9473C59.3496 51.0371 59.7852 51.082 60.293 51.082C60.7891 51.082 61.2168 51.0371 61.5762 50.9473C61.9355 50.8574 62.2129 50.7266 62.4082 50.5547C62.6035 50.3789 62.7031 50.1719 62.707 49.9336C62.7031 49.6953 62.6035 49.4902 62.4082 49.3184C62.2129 49.1426 61.9336 49.0117 61.5703 48.9258C61.2109 48.8359 60.7852 48.793 60.293 48.7969ZM60.5625 43.1719H56.9766V46.0312C58.0547 46.0273 58.9238 46.002 59.584 45.9551C60.2441 45.9082 60.8945 45.8203 61.5352 45.6914L61.6406 46.5938C60.9727 46.7344 60.2891 46.8262 59.5898 46.8691C58.8906 46.9121 57.9297 46.9336 56.707 46.9336H55.875V42.2695H60.5625V43.1719Z" fill="#A0A0A0"/>
</g>
<defs>
<filter id="filter0_d_672_987" x="0.523687" y="-1.73815" width="150.35" height="199.453" filterUnits="userSpaceOnUse" color-interpolation-filters="sRGB">
<feFlood flood-opacity="0" result="BackgroundImageFix"/>
<feColorMatrix in="SourceAlpha" type="matrix" values="0 0 0 0 0 0 0 0 0 0 0 0 0 0 0 0 0 0 127 0" result="hardAlpha"/>
<feOffset dy="1.73815"/>
<feGaussianBlur stdDeviation="1.73815"/>
<feComposite in2="hardAlpha" operator="out"/>
<feColorMatrix type="matrix" values="0 0 0 0 0 0 0 0 0 0 0 0 0 0 0 0 0 0 0.25 0"/>
<feBlend mode="normal" in2="BackgroundImageFix" result="effect1_dropShadow_672_987"/>
<feBlend mode="normal" in="SourceGraphic" in2="effect1_dropShadow_672_987" result="shape"/>
</filter>
</defs>
</svg>

