<svg width="42" height="42" viewBox="0 0 42 42" fill="none" xmlns="http://www.w3.org/2000/svg">
<circle cx="21" cy="21" r="21" fill="#D6DDFE"/>
<path d="M16.5556 17.0558L17.1841 17.6843M24.5556 17.2858L25.4142 17.0557M21.8586 14.3891L22.7475 13.5002M21 17.9447L21.8586 18.1747M21 12.6113C16.8817 12.6113 13.4902 15.7232 13.0487 19.7239C12.9948 20.2118 13.398 20.6113 13.8889 20.6113H28.1111C28.602 20.6113 29.0052 20.2118 28.9513 19.7239C28.5098 15.7232 25.1183 12.6113 21 12.6113ZM23 25.8953L20.3254 24.2494C20.1853 24.1631 20.024 24.1175 19.8595 24.1175H13.8889C13.398 24.1175 13 24.5155 13 25.0064V28.6113C13 29.1022 13.398 29.5002 13.8889 29.5002H28.1111C28.602 29.5002 29 29.1022 29 28.6113V25.0064C29 24.5155 28.602 24.1175 28.1111 24.1175H26.1405C25.976 24.1175 25.8147 24.1631 25.6746 24.2494L23 25.8953Z" stroke="#111111" stroke-width="1.87654" stroke-linecap="round" stroke-linejoin="round"/>
</svg>
