<svg width="42" height="42" viewBox="0 0 42 42" fill="none" xmlns="http://www.w3.org/2000/svg">
<circle cx="21" cy="21" r="21" fill="#D6DDFE"/>
<path d="M18.8214 30H25.5714C26.6365 30 27.5 29.1046 27.5 28V18.4142C27.5 18.149 27.3984 17.8946 27.2176 17.7071L21.9967 12.2929C21.8159 12.1054 21.5706 12 21.3149 12H15.9286C14.8635 12 14 12.8954 14 14V25M14 30L18.7044 25.1213M18.7044 25.1213C19.2279 25.6642 19.9512 26 20.75 26C22.3477 26 23.6429 24.6569 23.6429 23C23.6429 21.3431 22.3477 20 20.75 20C19.1523 20 17.8571 21.3431 17.8571 23C17.8571 23.8284 18.1809 24.5784 18.7044 25.1213Z" stroke="#111111" stroke-width="1.6875" stroke-linecap="round"/>
</svg>
