<svg width="42" height="42" viewBox="0 0 42 42" fill="none" xmlns="http://www.w3.org/2000/svg">
<circle cx="21" cy="21" r="21" fill="#D6DDFE"/>
<path fill-rule="evenodd" clip-rule="evenodd" d="M12 28.9856V18.0904C11.9965 17.5342 12.4441 17.0802 13.0003 17.076H17.0002C17.5564 17.0802 18.004 17.5342 18.0004 18.0904V13.0144C17.9969 12.4587 18.4437 12.005 18.9994 12H23.0006C23.5568 12.0042 24.0044 12.4582 24.0009 13.0144V16.0603C23.9973 15.5041 24.445 15.0501 25.0012 15.0459H29.001C29.5567 15.0508 30.0036 15.5046 30 16.0603V28.9856C30.0036 29.5418 29.5559 29.9958 28.9997 30H13.0003C12.4441 29.9958 11.9965 29.5418 12 28.9856V28.9856Z" stroke="#111111" stroke-width="1.92857" stroke-linecap="round" stroke-linejoin="round"/>
<path d="M17.0361 30.0004C17.0361 30.533 17.4678 30.9647 18.0004 30.9647C18.5329 30.9647 18.9647 30.533 18.9647 30.0004H17.0361ZM18.9647 18.0908C18.9647 17.5583 18.5329 17.1265 18.0004 17.1265C17.4678 17.1265 17.0361 17.5583 17.0361 18.0908H18.9647ZM23.0352 30.0003C23.0352 30.5328 23.467 30.9645 23.9995 30.9645C24.5321 30.9645 24.9638 30.5328 24.9638 30.0003H23.0352ZM24.9638 16.0605C24.9638 15.528 24.5321 15.0963 23.9995 15.0963C23.467 15.0963 23.0352 15.528 23.0352 16.0605H24.9638ZM18.9647 30.0004V18.0908H17.0361V30.0004H18.9647ZM24.9638 30.0003V16.0605H23.0352V30.0003H24.9638Z" fill="#111111"/>
</svg>
