<svg width="31" height="30" viewBox="0 0 31 30" fill="none" xmlns="http://www.w3.org/2000/svg">
<g filter="url(#filter0_di_382_965)">
<rect x="3" width="25.192" height="24" rx="3" fill="white"/>
<g clip-path="url(#clip0_382_965)">
<g filter="url(#filter1_di_382_965)">
<path fill-rule="evenodd" clip-rule="evenodd" d="M18.4625 6.88231C17.8915 6.87143 17.4198 7.32551 17.409 7.89652C17.3981 8.46753 17.8522 8.93924 18.4232 8.95011L20.4309 8.98835L16.536 12.8791L14.6649 10.9354C14.4728 10.7358 14.2087 10.6217 13.9317 10.6185C13.6547 10.6153 13.3881 10.7234 13.1914 10.9185L8.74546 15.3307C8.34009 15.733 8.33759 16.3877 8.73988 16.7931C9.14218 17.1985 9.79692 17.201 10.2023 16.7987L13.903 13.1261L15.7765 15.0724C15.969 15.2723 16.2339 15.3865 16.5114 15.3893C16.789 15.392 17.056 15.283 17.2524 15.0868L21.8565 10.4875L21.8203 12.3875C21.8094 12.9585 22.2635 13.4302 22.8345 13.4411C23.4055 13.4519 23.8772 12.9978 23.8881 12.4268L23.972 8.02151C23.9829 7.4505 23.5288 6.97879 22.9578 6.96791L18.4625 6.88231Z" fill="url(#paint0_linear_382_965)"/>
</g>
</g>
</g>
<defs>
<filter id="filter0_di_382_965" x="0.256027" y="-0.9572" width="30.68" height="30.4451" filterUnits="userSpaceOnUse" color-interpolation-filters="sRGB">
<feFlood flood-opacity="0" result="BackgroundImageFix"/>
<feColorMatrix in="SourceAlpha" type="matrix" values="0 0 0 0 0 0 0 0 0 0 0 0 0 0 0 0 0 0 127 0" result="hardAlpha"/>
<feOffset dy="2.74397"/>
<feGaussianBlur stdDeviation="1.37199"/>
<feColorMatrix type="matrix" values="0 0 0 0 0 0 0 0 0 0 0 0 0 0 0 0 0 0 0.15 0"/>
<feBlend mode="normal" in2="BackgroundImageFix" result="effect1_dropShadow_382_965"/>
<feBlend mode="normal" in="SourceGraphic" in2="effect1_dropShadow_382_965" result="shape"/>
<feColorMatrix in="SourceAlpha" type="matrix" values="0 0 0 0 0 0 0 0 0 0 0 0 0 0 0 0 0 0 127 0" result="hardAlpha"/>
<feOffset dy="-0.9572"/>
<feGaussianBlur stdDeviation="0.9572"/>
<feComposite in2="hardAlpha" operator="arithmetic" k2="-1" k3="1"/>
<feColorMatrix type="matrix" values="0 0 0 0 0 0 0 0 0 0 0 0 0 0 0 0 0 0 0.25 0"/>
<feBlend mode="normal" in2="shape" result="effect2_innerShadow_382_965"/>
</filter>
<filter id="filter1_di_382_965" x="6.71987" y="5.9562" width="18.9723" height="14.1854" filterUnits="userSpaceOnUse" color-interpolation-filters="sRGB">
<feFlood flood-opacity="0" result="BackgroundImageFix"/>
<feColorMatrix in="SourceAlpha" type="matrix" values="0 0 0 0 0 0 0 0 0 0 0 0 0 0 0 0 0 0 127 0" result="hardAlpha"/>
<feOffset dy="1.32304"/>
<feGaussianBlur stdDeviation="0.859977"/>
<feColorMatrix type="matrix" values="0 0 0 0 0.679167 0 0 0 0 0.104705 0 0 0 0 0.104705 0 0 0 0.37 0"/>
<feBlend mode="normal" in2="BackgroundImageFix" result="effect1_dropShadow_382_965"/>
<feBlend mode="normal" in="SourceGraphic" in2="effect1_dropShadow_382_965" result="shape"/>
<feColorMatrix in="SourceAlpha" type="matrix" values="0 0 0 0 0 0 0 0 0 0 0 0 0 0 0 0 0 0 127 0" result="hardAlpha"/>
<feOffset dy="-1.32304"/>
<feGaussianBlur stdDeviation="0.463065"/>
<feComposite in2="hardAlpha" operator="arithmetic" k2="-1" k3="1"/>
<feColorMatrix type="matrix" values="0 0 0 0 0 0 0 0 0 0 0 0 0 0 0 0 0 0 0.2 0"/>
<feBlend mode="normal" in2="shape" result="effect2_innerShadow_382_965"/>
</filter>
<linearGradient id="paint0_linear_382_965" x1="16.3049" y1="6.84121" x2="16.1071" y2="17.2252" gradientUnits="userSpaceOnUse">
<stop stop-color="#EE7878"/>
<stop offset="1" stop-color="#C6512C"/>
</linearGradient>
<clipPath id="clip0_382_965">
<rect width="18.5226" height="18.5226" fill="white" transform="translate(7.10864 2.56396) rotate(1.09103)"/>
</clipPath>
</defs>
</svg>
