<svg width="90" height="41" viewBox="0 0 90 41" fill="none" xmlns="http://www.w3.org/2000/svg">
<g filter="url(#filter0_i_382_974)">
<rect width="90" height="41" rx="20" fill="#3053F9"/>
</g>
<path d="M31.6758 22.2812V23.5254H26.7812V27.2305H25.2773V23.5254H20.4102V22.2812H31.6758ZM30.623 16.3203V17.5234H26.8086C26.9521 18.7471 28.5586 20.0254 31.0332 20.3262L30.4727 21.5293C28.4287 21.2695 26.8428 20.3672 26.043 19.1777C25.2295 20.3809 23.6299 21.2695 21.5723 21.5293L21.0254 20.3262C23.4932 20.0254 25.1133 18.7676 25.2637 17.5234H21.4492V16.3203H25.2773V14.8711H26.7812V16.3203H30.623ZM42.1895 14.8574V19.6836H44.0215V20.9551H42.1895V27.1895H40.6719V14.8574H42.1895ZM38.9219 16.1426C38.9219 19.7793 37.418 22.9648 33.3027 24.9883L32.4414 23.8125C35.4492 22.3154 37.0762 20.21 37.3906 17.4004H33.1113V16.1426H38.9219ZM54.2891 14.8574V19.7793H56.1895V21.0371H54.2891V27.2168H52.7852V14.8574H54.2891ZM51.8281 16.7578V17.9746H44.541V16.7578H47.4668V15.0352H48.9844V16.7578H51.8281ZM48.2324 18.7812C50.0098 18.7812 51.3359 19.9844 51.3359 21.6934C51.3359 23.4023 50.0098 24.5918 48.2324 24.5918C46.4277 24.5918 45.1016 23.4023 45.1152 21.6934C45.1016 19.9844 46.4277 18.7812 48.2324 18.7812ZM48.2324 20.0254C47.2617 20.0254 46.5645 20.6816 46.5645 21.6934C46.5645 22.7051 47.2617 23.3477 48.2324 23.334C49.1758 23.3477 49.873 22.7051 49.8867 21.6934C49.873 20.6816 49.1758 20.0254 48.2324 20.0254ZM67.0312 14.8574V27.2168H65.5V14.8574H67.0312ZM63.3398 16.1699C63.3398 19.8477 61.918 22.9785 57.584 25.0293L56.791 23.8125C60.0244 22.2744 61.5283 20.1826 61.7949 17.373H57.4199V16.1699H63.3398Z" fill="white"/>
<defs>
<filter id="filter0_i_382_974" x="-4" y="0" width="94" height="44" filterUnits="userSpaceOnUse" color-interpolation-filters="sRGB">
<feFlood flood-opacity="0" result="BackgroundImageFix"/>
<feBlend mode="normal" in="SourceGraphic" in2="BackgroundImageFix" result="shape"/>
<feColorMatrix in="SourceAlpha" type="matrix" values="0 0 0 0 0 0 0 0 0 0 0 0 0 0 0 0 0 0 127 0" result="hardAlpha"/>
<feOffset dx="-4" dy="4"/>
<feGaussianBlur stdDeviation="2"/>
<feComposite in2="hardAlpha" operator="arithmetic" k2="-1" k3="1"/>
<feColorMatrix type="matrix" values="0 0 0 0 1 0 0 0 0 1 0 0 0 0 1 0 0 0 0.2 0"/>
<feBlend mode="normal" in2="shape" result="effect1_innerShadow_382_974"/>
</filter>
</defs>
</svg>
