<svg width="90" height="41" viewBox="0 0 90 41" fill="none" xmlns="http://www.w3.org/2000/svg">
<g filter="url(#filter0_i_23_829)">
<rect width="90" height="41" rx="20" fill="#E8E8E8"/>
</g>
<path d="M32.6758 21.2812V22.5254H27.7812V26.2305H26.2773V22.5254H21.4102V21.2812H32.6758ZM31.623 15.3203V16.5234H27.8086C27.9521 17.7471 29.5586 19.0254 32.0332 19.3262L31.4727 20.5293C29.4287 20.2695 27.8428 19.3672 27.043 18.1777C26.2295 19.3809 24.6299 20.2695 22.5723 20.5293L22.0254 19.3262C24.4932 19.0254 26.1133 17.7676 26.2637 16.5234H22.4492V15.3203H26.2773V13.8711H27.7812V15.3203H31.623ZM43.1895 13.8574V18.6836H45.0215V19.9551H43.1895V26.1895H41.6719V13.8574H43.1895ZM39.9219 15.1426C39.9219 18.7793 38.418 21.9648 34.3027 23.9883L33.4414 22.8125C36.4492 21.3154 38.0762 19.21 38.3906 16.4004H34.1113V15.1426H39.9219ZM55.2891 13.8574V18.7793H57.1895V20.0371H55.2891V26.2168H53.7852V13.8574H55.2891ZM52.8281 15.7578V16.9746H45.541V15.7578H48.4668V14.0352H49.9844V15.7578H52.8281ZM49.2324 17.7812C51.0098 17.7812 52.3359 18.9844 52.3359 20.6934C52.3359 22.4023 51.0098 23.5918 49.2324 23.5918C47.4277 23.5918 46.1016 22.4023 46.1152 20.6934C46.1016 18.9844 47.4277 17.7812 49.2324 17.7812ZM49.2324 19.0254C48.2617 19.0254 47.5645 19.6816 47.5645 20.6934C47.5645 21.7051 48.2617 22.3477 49.2324 22.334C50.1758 22.3477 50.873 21.7051 50.8867 20.6934C50.873 19.6816 50.1758 19.0254 49.2324 19.0254ZM68.0312 13.8574V26.2168H66.5V13.8574H68.0312ZM64.3398 15.1699C64.3398 18.8477 62.918 21.9785 58.584 24.0293L57.791 22.8125C61.0244 21.2744 62.5283 19.1826 62.7949 16.373H58.4199V15.1699H64.3398Z" fill="#414141"/>
<defs>
<filter id="filter0_i_23_829" x="-4" y="0" width="94" height="44" filterUnits="userSpaceOnUse" color-interpolation-filters="sRGB">
<feFlood flood-opacity="0" result="BackgroundImageFix"/>
<feBlend mode="normal" in="SourceGraphic" in2="BackgroundImageFix" result="shape"/>
<feColorMatrix in="SourceAlpha" type="matrix" values="0 0 0 0 0 0 0 0 0 0 0 0 0 0 0 0 0 0 127 0" result="hardAlpha"/>
<feOffset dx="-4" dy="4"/>
<feGaussianBlur stdDeviation="2"/>
<feComposite in2="hardAlpha" operator="arithmetic" k2="-1" k3="1"/>
<feColorMatrix type="matrix" values="0 0 0 0 1 0 0 0 0 1 0 0 0 0 1 0 0 0 0.2 0"/>
<feBlend mode="normal" in2="shape" result="effect1_innerShadow_23_829"/>
</filter>
</defs>
</svg>
