<svg width="350" height="80" viewBox="0 0 350 80" fill="none" xmlns="http://www.w3.org/2000/svg">
<g filter="url(#filter0_i_549_871)">
<g filter="url(#filter1_i_549_871)">
<rect width="350" height="80" rx="40" fill="#3053F9"/>
</g>
</g>
<path d="M287.471 39H310.529" stroke="white" stroke-width="1.64706" stroke-linecap="round"/>
<path d="M305.588 45.5882L310.529 39" stroke="white" stroke-width="1.64706" stroke-linecap="round"/>
<path d="M305.588 32.4118L310.529 39" stroke="white" stroke-width="1.64706" stroke-linecap="round"/>
<path d="M73.709 43.3984H52.7617V41.1387H61.8008V38.6504H55.3262V30.4492H71.1699V32.7344H58.1445V36.3652H71.373V38.6504H64.6445V41.1387H73.709V43.3984ZM71.5254 51.8027H55.3516V45.125H58.1191V49.5176H71.5254V51.8027ZM87.0898 32.4551C87.0898 33.6315 87.4453 34.7783 88.1562 35.8955C88.8757 37.0127 89.8659 37.9775 91.127 38.79C92.388 39.5941 93.8014 40.1315 95.3672 40.4023L94.0977 42.7637C92.1764 42.3574 90.4668 41.6084 88.9688 40.5166C87.4792 39.4163 86.362 38.0918 85.6172 36.543C84.8555 38.0833 83.7256 39.4036 82.2275 40.5039C80.7295 41.5957 79.0241 42.349 77.1113 42.7637L75.8672 40.4023C77.416 40.123 78.8125 39.5814 80.0566 38.7773C81.3092 37.9648 82.291 37 83.002 35.8828C83.7214 34.7656 84.0853 33.623 84.0938 32.4551V30.7539H87.0898V32.4551ZM96.2051 49.3398H75.2324V47.0039H96.2051V49.3398ZM110.805 33.8516H108.596V44.1855C109.958 44.0671 110.974 43.9655 111.643 43.8809L111.77 45.9121C109.645 46.276 107.411 46.5215 105.066 46.6484C102.73 46.7669 100.285 46.8262 97.7285 46.8262L97.3984 44.5156L100.166 44.4902V33.8516H97.9824V31.541H110.805V33.8516ZM115.68 38.1934H119.209V40.5039H115.68V52.2598H112.861V29.3066H115.68V38.1934ZM102.908 44.4521C103.535 44.4352 104.525 44.4014 105.879 44.3506V33.8516H102.908V44.4521ZM139.268 52.2852H136.424V29.3066H139.268V52.2852ZM126.902 30.9824C128.053 30.9824 129.077 31.3167 129.975 31.9854C130.88 32.6455 131.591 33.5892 132.107 34.8164C132.624 36.0352 132.886 37.457 132.895 39.082C132.886 40.7155 132.624 42.1458 132.107 43.373C131.6 44.6003 130.893 45.5482 129.987 46.2168C129.082 46.877 128.053 47.207 126.902 47.207C125.743 47.207 124.71 46.877 123.805 46.2168C122.899 45.5482 122.188 44.6003 121.672 43.373C121.164 42.1458 120.91 40.7155 120.91 39.082C120.91 37.457 121.164 36.0352 121.672 34.8164C122.188 33.5892 122.899 32.6455 123.805 31.9854C124.71 31.3167 125.743 30.9824 126.902 30.9824ZM126.902 33.5215C126.251 33.5215 125.675 33.7415 125.176 34.1816C124.685 34.6217 124.304 35.2607 124.033 36.0986C123.762 36.9365 123.627 37.931 123.627 39.082C123.627 40.2415 123.762 41.2402 124.033 42.0781C124.304 42.916 124.685 43.5592 125.176 44.0078C125.675 44.4479 126.251 44.668 126.902 44.668C127.546 44.668 128.113 44.4479 128.604 44.0078C129.094 43.5592 129.475 42.916 129.746 42.0781C130.017 41.2402 130.152 40.2415 130.152 39.082C130.152 37.931 130.017 36.9408 129.746 36.1113C129.475 35.2734 129.094 34.6344 128.604 34.1943C128.113 33.7458 127.546 33.5215 126.902 33.5215ZM161.256 34.1816C161.256 35.6458 161.239 36.8857 161.205 37.9014C161.171 38.917 161.078 40.0638 160.926 41.3418C160.782 42.6198 160.553 44.0163 160.24 45.5312L157.422 45.2773C157.854 43.4238 158.146 41.6253 158.298 39.8818L144.777 40.5801L144.396 38.2949L158.438 37.7617C158.471 36.9408 158.488 35.7474 158.488 34.1816V33.7246H145.082V31.4395H161.256V34.1816ZM163.566 49.3398H142.645V47.0293H163.566V49.3398ZM189.262 38.041H192.791V40.4277H189.262V52.2598H186.443V29.3066H189.262V38.041ZM174.891 36.9238H180.299V31.1855H183.117V46.877H172.098V31.1855H174.891V36.9238ZM180.299 44.5664V39.1328H174.891V44.5664H180.299ZM214.729 49.5938H193.756V47.2578H202.795V43.5254H196.244V36.0098H209.447V33.166H196.193V30.8809H212.24V38.2441H199.062V41.2148H212.773V43.5254H205.588V47.2578H214.729V49.5938ZM234.203 38.2695H237.605V40.6309H234.203V52.209H231.385V29.3066H234.203V38.2695ZM228.135 31.6934C228.135 39.2259 224.656 44.7018 217.699 48.1211L216.1 45.9375C218.893 44.5495 221.047 42.8695 222.562 40.8975C224.085 38.9255 224.991 36.6361 225.278 34.0293H217.344V31.6934H228.135ZM257.867 52.2598H255.023V29.3066H257.867V52.2598ZM251.012 31.7441C251.012 35.3919 250.187 38.5954 248.536 41.3545C246.886 44.1051 244.148 46.3861 240.322 48.1973L238.85 45.9375C241.803 44.5326 244.025 42.8525 245.515 40.8975C247.013 38.9339 247.889 36.6276 248.143 33.9785H240.018V31.7441H251.012Z" fill="white"/>
<defs>
<filter id="filter0_i_549_871" x="-4" y="0" width="354" height="84" filterUnits="userSpaceOnUse" color-interpolation-filters="sRGB">
<feFlood flood-opacity="0" result="BackgroundImageFix"/>
<feBlend mode="normal" in="SourceGraphic" in2="BackgroundImageFix" result="shape"/>
<feColorMatrix in="SourceAlpha" type="matrix" values="0 0 0 0 0 0 0 0 0 0 0 0 0 0 0 0 0 0 127 0" result="hardAlpha"/>
<feOffset dx="-4" dy="4"/>
<feGaussianBlur stdDeviation="2"/>
<feComposite in2="hardAlpha" operator="arithmetic" k2="-1" k3="1"/>
<feColorMatrix type="matrix" values="0 0 0 0 1 0 0 0 0 1 0 0 0 0 1 0 0 0 0.2 0"/>
<feBlend mode="normal" in2="shape" result="effect1_innerShadow_549_871"/>
</filter>
<filter id="filter1_i_549_871" x="-4" y="0" width="354" height="84" filterUnits="userSpaceOnUse" color-interpolation-filters="sRGB">
<feFlood flood-opacity="0" result="BackgroundImageFix"/>
<feBlend mode="normal" in="SourceGraphic" in2="BackgroundImageFix" result="shape"/>
<feColorMatrix in="SourceAlpha" type="matrix" values="0 0 0 0 0 0 0 0 0 0 0 0 0 0 0 0 0 0 127 0" result="hardAlpha"/>
<feOffset dx="-4" dy="4"/>
<feGaussianBlur stdDeviation="2"/>
<feComposite in2="hardAlpha" operator="arithmetic" k2="-1" k3="1"/>
<feColorMatrix type="matrix" values="0 0 0 0 1 0 0 0 0 1 0 0 0 0 1 0 0 0 0.2 0"/>
<feBlend mode="normal" in2="shape" result="effect1_innerShadow_549_871"/>
</filter>
</defs>
</svg>
