<svg width="120" height="48" viewBox="0 0 120 48" fill="none" xmlns="http://www.w3.org/2000/svg">
<g filter="url(#filter0_d_673_1053)">
<rect x="113" y="42" width="103" height="30" rx="15" transform="rotate(-180 113 42)" fill="#F0F1F5"/>
<path d="M62.1367 2.38801L71.8404 12.0918L52.7923 12.0918L62.1367 2.38801Z" fill="#F0F1F5"/>
<path d="M25.8516 30.8301H24.9629V22.0801H25.8516V30.8301ZM24.0938 30.4004H23.2148V27.5781H21.9453C21.7891 28.0176 21.5693 28.3561 21.2861 28.5938C21.0029 28.8314 20.6758 28.9486 20.3047 28.9453C19.9271 28.9486 19.5951 28.8249 19.3086 28.5742C19.0254 28.3236 18.8057 27.9655 18.6494 27.5C18.4964 27.0312 18.4199 26.4844 18.4199 25.8594C18.4199 25.2344 18.4964 24.6891 18.6494 24.2236C18.8057 23.7581 19.0254 23.4017 19.3086 23.1543C19.5951 22.9036 19.9271 22.7799 20.3047 22.7832C20.6758 22.7799 21.0013 22.8971 21.2812 23.1348C21.5645 23.3691 21.7858 23.7044 21.9453 24.1406H23.2148V22.2461H24.0938V30.4004ZM20.3047 23.6523C20.0898 23.6523 19.9043 23.7402 19.748 23.916C19.5951 24.0885 19.4762 24.3408 19.3916 24.6729C19.3102 25.0016 19.2695 25.3971 19.2695 25.8594C19.2695 26.3216 19.3102 26.7188 19.3916 27.0508C19.4762 27.3796 19.5951 27.6318 19.748 27.8076C19.9043 27.9801 20.0898 28.0664 20.3047 28.0664C20.5195 28.0664 20.7051 27.9801 20.8613 27.8076C21.0208 27.6318 21.1429 27.3779 21.2275 27.0459C21.3154 26.7139 21.3594 26.3184 21.3594 25.8594C21.3594 25.4004 21.3154 25.0049 21.2275 24.6729C21.1429 24.3408 21.0208 24.0885 20.8613 23.916C20.7051 23.7402 20.5195 23.6523 20.3047 23.6523ZM22.1357 24.8926C22.1846 25.1888 22.209 25.5111 22.209 25.8594C22.209 26.2044 22.1846 26.5234 22.1357 26.8164H23.2148V24.8926H22.1357ZM29.9824 23.4766C29.9824 23.8607 30.0671 24.2285 30.2363 24.5801C30.4089 24.9316 30.653 25.2425 30.9688 25.5127C31.2878 25.7796 31.6621 25.9831 32.0918 26.123L31.5938 26.8555C31.1217 26.6895 30.7083 26.4437 30.3535 26.1182C30.002 25.7894 29.7301 25.4069 29.5381 24.9707C29.346 25.4688 29.0661 25.9017 28.6982 26.2695C28.3337 26.6341 27.8991 26.9108 27.3945 27.0996L26.8965 26.3574C27.3457 26.1979 27.7314 25.9701 28.0537 25.6738C28.3792 25.3743 28.6283 25.0293 28.8008 24.6387C28.9733 24.248 29.0612 23.8346 29.0645 23.3984V22.5391H29.9824V23.4766ZM33.8398 24.2773H35.1094V25.0586H33.8398V27.3633H32.9121V22.0801H33.8398V24.2773ZM31.0176 27.5684C31.6133 27.5684 32.1292 27.6335 32.5654 27.7637C33.0016 27.8906 33.3353 28.0762 33.5664 28.3203C33.8008 28.5612 33.918 28.8509 33.918 29.1895C33.918 29.5312 33.8008 29.8242 33.5664 30.0684C33.3353 30.3125 33.0016 30.498 32.5654 30.625C32.1292 30.752 31.6133 30.8138 31.0176 30.8105C30.4154 30.8138 29.8929 30.752 29.4502 30.625C29.0075 30.498 28.6673 30.3125 28.4297 30.0684C28.1953 29.8242 28.0781 29.5312 28.0781 29.1895C28.0781 28.8509 28.1953 28.5612 28.4297 28.3203C28.6673 28.0762 29.0075 27.8906 29.4502 27.7637C29.8929 27.6335 30.4154 27.5684 31.0176 27.5684ZM31.0176 28.3008C30.5977 28.3008 30.2363 28.3366 29.9336 28.4082C29.6309 28.4766 29.3997 28.5775 29.2402 28.7109C29.0807 28.8444 29.0026 29.0039 29.0059 29.1895C29.0026 29.4759 29.1768 29.6956 29.5283 29.8486C29.8799 30.0016 30.3763 30.0814 31.0176 30.0879C31.6523 30.0814 32.1423 30.0016 32.4873 29.8486C32.8356 29.6956 33.0098 29.4759 33.0098 29.1895C33.0098 28.9095 32.834 28.6914 32.4824 28.5352C32.1341 28.3789 31.6458 28.3008 31.0176 28.3008ZM42.9805 23.5156H38.0586V22.8027H40.1094V21.9727H41.0273V22.8027H42.9805V23.5156ZM40.5586 23.8867C40.9525 23.8867 41.3008 23.9486 41.6035 24.0723C41.9095 24.1927 42.1471 24.3652 42.3164 24.5898C42.4889 24.8112 42.5768 25.0716 42.5801 25.3711C42.5768 25.6673 42.4889 25.9277 42.3164 26.1523C42.1471 26.377 41.9095 26.5511 41.6035 26.6748C41.3008 26.7952 40.9525 26.8555 40.5586 26.8555C40.1647 26.8555 39.8148 26.7952 39.5088 26.6748C39.2061 26.5511 38.9701 26.377 38.8008 26.1523C38.6315 25.9277 38.5469 25.6673 38.5469 25.3711C38.5469 25.0716 38.6315 24.8112 38.8008 24.5898C38.9701 24.3652 39.2061 24.1927 39.5088 24.0723C39.8148 23.9486 40.1647 23.8867 40.5586 23.8867ZM40.5586 24.5703C40.3307 24.5671 40.1305 24.598 39.958 24.6631C39.7855 24.7282 39.652 24.8226 39.5576 24.9463C39.4632 25.0667 39.416 25.2083 39.416 25.3711C39.416 25.5339 39.4632 25.6787 39.5576 25.8057C39.652 25.9294 39.7855 26.0254 39.958 26.0938C40.1338 26.1589 40.334 26.1914 40.5586 26.1914C40.7832 26.1914 40.9818 26.1572 41.1543 26.0889C41.3268 26.0205 41.4619 25.9245 41.5596 25.8008C41.6572 25.6771 41.7077 25.5339 41.7109 25.3711C41.7077 25.2083 41.6572 25.0667 41.5596 24.9463C41.4619 24.8226 41.3268 24.7282 41.1543 24.6631C40.9818 24.598 40.7832 24.5671 40.5586 24.5703ZM45.334 26.9434H44.416V26.2207H43V25.498H44.416V24.6582H43.0098V23.9355H44.416V22.0801H45.334V26.9434ZM45.334 29.3164H40.5586V30.0391H45.5781V30.7422H39.6309V28.6719H44.416V28.0273H39.6113V27.334H45.334V29.3164ZM53.5762 24.2969H54.8359V25.0586H53.5762V27.2461H52.6387V22.0801H53.5762V24.2969ZM50.7441 27.4121C51.3398 27.4121 51.8542 27.4788 52.2871 27.6123C52.7233 27.7458 53.0586 27.9411 53.293 28.1982C53.5273 28.4521 53.6445 28.7565 53.6445 29.1113C53.6445 29.4661 53.5273 29.7705 53.293 30.0244C53.0586 30.2816 52.7233 30.4769 52.2871 30.6104C51.8509 30.7471 51.3366 30.8138 50.7441 30.8105C50.1452 30.8138 49.6243 30.7471 49.1816 30.6104C48.7389 30.4769 48.3988 30.2816 48.1611 30.0244C47.9235 29.7705 47.8047 29.4661 47.8047 29.1113C47.8047 28.7565 47.9235 28.4521 48.1611 28.1982C48.3988 27.9411 48.7373 27.7458 49.1768 27.6123C49.6195 27.4788 50.1419 27.4121 50.7441 27.4121ZM50.7441 28.1641C50.3242 28.1608 49.9613 28.1966 49.6553 28.2715C49.3525 28.3431 49.1198 28.4505 48.957 28.5938C48.7975 28.737 48.7194 28.9095 48.7227 29.1113C48.7194 29.3099 48.7975 29.4824 48.957 29.6289C49.1198 29.7721 49.3525 29.8812 49.6553 29.9561C49.958 30.0309 50.321 30.0684 50.7441 30.0684C51.1576 30.0684 51.514 30.0309 51.8135 29.9561C52.113 29.8812 52.3441 29.7721 52.5068 29.6289C52.6696 29.4824 52.7526 29.3099 52.7559 29.1113C52.7526 28.9128 52.6696 28.7419 52.5068 28.5986C52.3441 28.4521 52.1113 28.3431 51.8086 28.2715C51.5091 28.1966 51.1543 28.1608 50.7441 28.1641ZM50.9688 23.4766H47.9805V25.8594C48.8789 25.8561 49.6032 25.835 50.1533 25.7959C50.7035 25.7568 51.2454 25.6836 51.7793 25.5762L51.8672 26.3281C51.3105 26.4453 50.7409 26.5218 50.1582 26.5576C49.5755 26.5934 48.7747 26.6113 47.7559 26.6113H47.0625V22.7246H50.9688V23.4766Z" fill="#A0A0A0"/>
</g>
<defs>
<filter id="filter0_d_673_1053" x="-2" y="0.388184" width="128" height="48.6118" filterUnits="userSpaceOnUse" color-interpolation-filters="sRGB">
<feFlood flood-opacity="0" result="BackgroundImageFix"/>
<feColorMatrix in="SourceAlpha" type="matrix" values="0 0 0 0 0 0 0 0 0 0 0 0 0 0 0 0 0 0 127 0" result="hardAlpha"/>
<feOffset dx="2" dy="2"/>
<feGaussianBlur stdDeviation="2"/>
<feComposite in2="hardAlpha" operator="out"/>
<feColorMatrix type="matrix" values="0 0 0 0 0 0 0 0 0 0 0 0 0 0 0 0 0 0 0.25 0"/>
<feBlend mode="normal" in2="BackgroundImageFix" result="effect1_dropShadow_673_1053"/>
<feBlend mode="normal" in="SourceGraphic" in2="effect1_dropShadow_673_1053" result="shape"/>
</filter>
</defs>
</svg>
